<mxfile host="app.diagrams.net" agent="Mozilla/5.0 (Windows NT 10.0; Win64; x64; rv:137.0) Gecko/20100101 Firefox/137.0" version="26.2.14">
  <diagram name="Page-1" id="0783ab3e-0a74-02c8-0abd-f7b4e66b4bec">
    <mxGraphModel dx="2926" dy="672" grid="1" gridSize="10" guides="1" tooltips="1" connect="1" arrows="1" fold="1" page="1" pageScale="1" pageWidth="850" pageHeight="1100" background="none" math="0" shadow="0">
      <root>
        <mxCell id="0" />
        <mxCell id="1" parent="0" />
        <mxCell id="cK02aoGFD56z1Gf120GQ-211" value="" style="endArrow=none;startArrow=none;endFill=0;startFill=0;endSize=8;html=1;verticalAlign=bottom;labelBackgroundColor=none;strokeWidth=3;rounded=0;exitX=0.5;exitY=0;exitDx=0;exitDy=0;" parent="1" edge="1">
          <mxGeometry width="160" relative="1" as="geometry">
            <mxPoint x="270" y="860" as="sourcePoint" />
            <mxPoint x="130" y="750" as="targetPoint" />
            <Array as="points">
              <mxPoint x="240" y="780" />
            </Array>
          </mxGeometry>
        </mxCell>
        <mxCell id="cK02aoGFD56z1Gf120GQ-213" value="Prepares" style="edgeLabel;html=1;align=center;verticalAlign=middle;resizable=0;points=[];" parent="cK02aoGFD56z1Gf120GQ-211" vertex="1" connectable="0">
          <mxGeometry x="0.0883" y="2" relative="1" as="geometry">
            <mxPoint x="31" y="10" as="offset" />
          </mxGeometry>
        </mxCell>
        <mxCell id="9kzETTMTDvsTJWJQEYAj-15" value="User" style="swimlane;fontStyle=0;childLayout=stackLayout;horizontal=1;startSize=26;fillColor=none;horizontalStack=0;resizeParent=1;resizeParentMax=0;resizeLast=0;collapsible=1;marginBottom=0;whiteSpace=wrap;html=1;" parent="1" vertex="1">
          <mxGeometry x="-180" y="550" width="120" height="100" as="geometry">
            <mxRectangle x="350" y="460" width="100" height="30" as="alternateBounds" />
          </mxGeometry>
        </mxCell>
        <mxCell id="9kzETTMTDvsTJWJQEYAj-19" value="Profile" style="swimlane;fontStyle=0;childLayout=stackLayout;horizontal=1;startSize=26;fillColor=none;horizontalStack=0;resizeParent=1;resizeParentMax=0;resizeLast=0;collapsible=1;marginBottom=0;whiteSpace=wrap;html=1;" parent="1" vertex="1">
          <mxGeometry y="348" width="150" height="82" as="geometry">
            <mxRectangle x="580" y="461" width="70" height="30" as="alternateBounds" />
          </mxGeometry>
        </mxCell>
        <mxCell id="9kzETTMTDvsTJWJQEYAj-29" value="Rest_Customer" style="swimlane;fontStyle=0;childLayout=stackLayout;horizontal=1;startSize=26;fillColor=none;horizontalStack=0;resizeParent=1;resizeParentMax=0;resizeLast=0;collapsible=1;marginBottom=0;whiteSpace=wrap;html=1;" parent="1" vertex="1">
          <mxGeometry x="270" y="310" width="160" height="85" as="geometry">
            <mxRectangle x="350" y="460" width="100" height="30" as="alternateBounds" />
          </mxGeometry>
        </mxCell>
        <mxCell id="9kzETTMTDvsTJWJQEYAj-43" value="Bait" style="swimlane;fontStyle=0;childLayout=stackLayout;horizontal=1;startSize=26;fillColor=none;horizontalStack=0;resizeParent=1;resizeParentMax=0;resizeLast=0;collapsible=1;marginBottom=0;whiteSpace=wrap;html=1;" parent="1" vertex="1">
          <mxGeometry x="-800" y="833" width="140" height="87" as="geometry">
            <mxRectangle x="350" y="460" width="100" height="30" as="alternateBounds" />
          </mxGeometry>
        </mxCell>
        <mxCell id="9kzETTMTDvsTJWJQEYAj-50" value="Ingredients" style="swimlane;fontStyle=0;childLayout=stackLayout;horizontal=1;startSize=12;fillColor=none;horizontalStack=0;resizeParent=1;resizeParentMax=0;resizeLast=0;collapsible=1;marginBottom=0;whiteSpace=wrap;html=1;" parent="1" vertex="1">
          <mxGeometry x="-110" y="840" width="130" height="70" as="geometry">
            <mxRectangle x="350" y="460" width="100" height="30" as="alternateBounds" />
          </mxGeometry>
        </mxCell>
        <mxCell id="9kzETTMTDvsTJWJQEYAj-67" value="Fish" style="swimlane;fontStyle=0;childLayout=stackLayout;horizontal=1;startSize=26;fillColor=none;horizontalStack=0;resizeParent=1;resizeParentMax=0;resizeLast=0;collapsible=1;marginBottom=0;whiteSpace=wrap;html=1;" parent="1" vertex="1">
          <mxGeometry x="-570" y="570" width="110" height="70" as="geometry">
            <mxRectangle x="580" y="461" width="70" height="30" as="alternateBounds" />
          </mxGeometry>
        </mxCell>
        <mxCell id="9kzETTMTDvsTJWJQEYAj-69" value="&lt;div&gt;Order&lt;/div&gt;" style="swimlane;fontStyle=0;childLayout=stackLayout;horizontal=1;startSize=26;fillColor=none;horizontalStack=0;resizeParent=1;resizeParentMax=0;resizeLast=0;collapsible=1;marginBottom=0;whiteSpace=wrap;html=1;" parent="1" vertex="1">
          <mxGeometry x="540" y="230" width="130" height="70" as="geometry">
            <mxRectangle x="580" y="461" width="70" height="30" as="alternateBounds" />
          </mxGeometry>
        </mxCell>
        <mxCell id="9kzETTMTDvsTJWJQEYAj-88" value="Weather" style="swimlane;fontStyle=0;childLayout=stackLayout;horizontal=1;startSize=30;fillColor=none;horizontalStack=0;resizeParent=1;resizeParentMax=0;resizeLast=0;collapsible=1;marginBottom=0;whiteSpace=wrap;html=1;" parent="1" vertex="1">
          <mxGeometry x="-800" y="700" width="150" height="82" as="geometry">
            <mxRectangle x="350" y="460" width="100" height="30" as="alternateBounds" />
          </mxGeometry>
        </mxCell>
        <mxCell id="9kzETTMTDvsTJWJQEYAj-95" value="Rating" style="swimlane;fontStyle=0;childLayout=stackLayout;horizontal=1;startSize=26;fillColor=none;horizontalStack=0;resizeParent=1;resizeParentMax=0;resizeLast=0;collapsible=1;marginBottom=0;whiteSpace=wrap;html=1;" parent="1" vertex="1">
          <mxGeometry x="460" y="524" width="110" height="96" as="geometry">
            <mxRectangle x="580" y="461" width="70" height="30" as="alternateBounds" />
          </mxGeometry>
        </mxCell>
        <mxCell id="cK02aoGFD56z1Gf120GQ-123" value="Fisherman" style="swimlane;fontStyle=0;childLayout=stackLayout;horizontal=1;startSize=26;fillColor=none;horizontalStack=0;resizeParent=1;resizeParentMax=0;resizeLast=0;collapsible=1;marginBottom=0;whiteSpace=wrap;html=1;" parent="1" vertex="1">
          <mxGeometry x="-430" y="757" width="130" height="93" as="geometry">
            <mxRectangle x="580" y="461" width="70" height="30" as="alternateBounds" />
          </mxGeometry>
        </mxCell>
        <mxCell id="cK02aoGFD56z1Gf120GQ-124" value="Chef" style="swimlane;fontStyle=0;childLayout=stackLayout;horizontal=1;startSize=26;fillColor=none;horizontalStack=0;resizeParent=1;resizeParentMax=0;resizeLast=0;collapsible=1;marginBottom=0;whiteSpace=wrap;html=1;" parent="1" vertex="1">
          <mxGeometry x="30" y="670" width="140" height="80" as="geometry">
            <mxRectangle x="580" y="461" width="70" height="30" as="alternateBounds" />
          </mxGeometry>
        </mxCell>
        <mxCell id="cK02aoGFD56z1Gf120GQ-125" value="Fishing_Expertise" style="swimlane;fontStyle=0;childLayout=stackLayout;horizontal=1;startSize=26;fillColor=none;horizontalStack=0;resizeParent=1;resizeParentMax=0;resizeLast=0;collapsible=1;marginBottom=0;whiteSpace=wrap;html=1;" parent="1" vertex="1">
          <mxGeometry x="-425" y="1010" width="125" height="100" as="geometry">
            <mxRectangle x="580" y="461" width="70" height="30" as="alternateBounds" />
          </mxGeometry>
        </mxCell>
        <mxCell id="cK02aoGFD56z1Gf120GQ-137" value="" style="endArrow=none;startArrow=none;endFill=0;startFill=0;endSize=8;html=1;verticalAlign=bottom;labelBackgroundColor=none;strokeWidth=3;rounded=0;entryX=0;entryY=0.25;entryDx=0;entryDy=0;exitX=1;exitY=0.5;exitDx=0;exitDy=0;" parent="1" source="9kzETTMTDvsTJWJQEYAj-88" target="cK02aoGFD56z1Gf120GQ-123" edge="1">
          <mxGeometry width="160" relative="1" as="geometry">
            <mxPoint x="-460" y="572" as="sourcePoint" />
            <mxPoint x="-300" y="572" as="targetPoint" />
            <Array as="points">
              <mxPoint x="-530" y="750" />
            </Array>
          </mxGeometry>
        </mxCell>
        <mxCell id="cK02aoGFD56z1Gf120GQ-138" value="Checks" style="edgeLabel;html=1;align=center;verticalAlign=middle;resizable=0;points=[];" parent="cK02aoGFD56z1Gf120GQ-137" vertex="1" connectable="0">
          <mxGeometry x="0.0522" y="-5" relative="1" as="geometry">
            <mxPoint y="-1" as="offset" />
          </mxGeometry>
        </mxCell>
        <mxCell id="cK02aoGFD56z1Gf120GQ-141" value="" style="endArrow=none;startArrow=none;endFill=0;startFill=0;endSize=8;html=1;verticalAlign=bottom;labelBackgroundColor=none;strokeWidth=3;rounded=0;entryX=0;entryY=0.75;entryDx=0;entryDy=0;exitX=1;exitY=0.5;exitDx=0;exitDy=0;" parent="1" edge="1">
          <mxGeometry width="160" relative="1" as="geometry">
            <mxPoint x="-660" y="882.75" as="sourcePoint" />
            <mxPoint x="-430" y="833" as="targetPoint" />
            <Array as="points">
              <mxPoint x="-540" y="880" />
            </Array>
          </mxGeometry>
        </mxCell>
        <mxCell id="cK02aoGFD56z1Gf120GQ-143" value="Searches for" style="edgeLabel;html=1;align=center;verticalAlign=middle;resizable=0;points=[];" parent="cK02aoGFD56z1Gf120GQ-141" vertex="1" connectable="0">
          <mxGeometry x="-0.0807" relative="1" as="geometry">
            <mxPoint as="offset" />
          </mxGeometry>
        </mxCell>
        <mxCell id="mQlcEHzgQ4prbf6QyxQu-33" value="" style="endArrow=block;endSize=16;endFill=0;html=1;rounded=0;entryX=1;entryY=0.5;entryDx=0;entryDy=0;" parent="1" target="cK02aoGFD56z1Gf120GQ-123" edge="1">
          <mxGeometry width="160" relative="1" as="geometry">
            <mxPoint x="-130" y="650" as="sourcePoint" />
            <mxPoint x="-270" y="804.5" as="targetPoint" />
            <Array as="points">
              <mxPoint x="-130" y="805" />
            </Array>
          </mxGeometry>
        </mxCell>
        <mxCell id="cK02aoGFD56z1Gf120GQ-151" value="" style="endArrow=none;startArrow=none;endFill=0;startFill=0;endSize=8;html=1;verticalAlign=bottom;labelBackgroundColor=none;strokeWidth=3;rounded=0;entryX=0.25;entryY=0;entryDx=0;entryDy=0;exitX=0.5;exitY=1;exitDx=0;exitDy=0;" parent="1" source="9kzETTMTDvsTJWJQEYAj-67" target="cK02aoGFD56z1Gf120GQ-123" edge="1">
          <mxGeometry width="160" relative="1" as="geometry">
            <mxPoint x="-370" y="350" as="sourcePoint" />
            <mxPoint x="-140" y="488" as="targetPoint" />
          </mxGeometry>
        </mxCell>
        <mxCell id="cK02aoGFD56z1Gf120GQ-155" value="Logs" style="edgeLabel;html=1;align=center;verticalAlign=middle;resizable=0;points=[];" parent="cK02aoGFD56z1Gf120GQ-151" vertex="1" connectable="0">
          <mxGeometry x="-0.082" y="-1" relative="1" as="geometry">
            <mxPoint as="offset" />
          </mxGeometry>
        </mxCell>
        <mxCell id="cK02aoGFD56z1Gf120GQ-157" value="" style="endArrow=none;startArrow=none;endFill=0;startFill=0;endSize=8;html=1;verticalAlign=bottom;labelBackgroundColor=none;strokeWidth=3;rounded=0;exitX=0.5;exitY=0;exitDx=0;exitDy=0;" parent="1" edge="1">
          <mxGeometry width="160" relative="1" as="geometry">
            <mxPoint x="-45" y="840" as="sourcePoint" />
            <mxPoint x="50" y="750" as="targetPoint" />
            <Array as="points">
              <mxPoint x="-30" y="770" />
            </Array>
          </mxGeometry>
        </mxCell>
        <mxCell id="cK02aoGFD56z1Gf120GQ-177" value="Orders" style="edgeLabel;html=1;align=center;verticalAlign=middle;resizable=0;points=[];" parent="cK02aoGFD56z1Gf120GQ-157" vertex="1" connectable="0">
          <mxGeometry x="0.0179" y="-3" relative="1" as="geometry">
            <mxPoint as="offset" />
          </mxGeometry>
        </mxCell>
        <mxCell id="cK02aoGFD56z1Gf120GQ-167" value="" style="endArrow=block;endSize=16;endFill=0;html=1;rounded=0;entryX=0;entryY=0.75;entryDx=0;entryDy=0;" parent="1" edge="1">
          <mxGeometry width="160" relative="1" as="geometry">
            <mxPoint x="-100" y="650" as="sourcePoint" />
            <mxPoint x="30" y="720" as="targetPoint" />
            <Array as="points">
              <mxPoint x="-100" y="680" />
              <mxPoint x="-100" y="720" />
            </Array>
          </mxGeometry>
        </mxCell>
        <mxCell id="GBRJXe8QP-XChiDNGdr2-5" value="" style="endArrow=none;startArrow=none;endFill=0;startFill=0;endSize=8;html=1;verticalAlign=bottom;labelBackgroundColor=none;strokeWidth=3;rounded=0;entryX=0.25;entryY=0;entryDx=0;entryDy=0;exitX=0.5;exitY=1;exitDx=0;exitDy=0;" parent="1" source="9kzETTMTDvsTJWJQEYAj-29" target="9kzETTMTDvsTJWJQEYAj-95" edge="1">
          <mxGeometry width="160" relative="1" as="geometry">
            <mxPoint x="150" y="629" as="sourcePoint" />
            <mxPoint x="445" y="642" as="targetPoint" />
          </mxGeometry>
        </mxCell>
        <mxCell id="GBRJXe8QP-XChiDNGdr2-6" value="Gives" style="edgeLabel;html=1;align=center;verticalAlign=middle;resizable=0;points=[];" parent="GBRJXe8QP-XChiDNGdr2-5" connectable="0" vertex="1">
          <mxGeometry x="-0.0807" relative="1" as="geometry">
            <mxPoint as="offset" />
          </mxGeometry>
        </mxCell>
        <mxCell id="GBRJXe8QP-XChiDNGdr2-9" value="" style="endArrow=none;startArrow=none;endFill=0;startFill=0;endSize=8;html=1;verticalAlign=bottom;labelBackgroundColor=none;strokeWidth=3;rounded=0;entryX=0.5;entryY=0;entryDx=0;entryDy=0;exitX=0.25;exitY=1;exitDx=0;exitDy=0;" parent="1" source="9kzETTMTDvsTJWJQEYAj-19" target="9kzETTMTDvsTJWJQEYAj-15" edge="1">
          <mxGeometry width="160" relative="1" as="geometry">
            <mxPoint x="201" y="320" as="sourcePoint" />
            <mxPoint x="200" y="463" as="targetPoint" />
          </mxGeometry>
        </mxCell>
        <mxCell id="GBRJXe8QP-XChiDNGdr2-10" value="Creates" style="edgeLabel;html=1;align=center;verticalAlign=middle;resizable=0;points=[];" parent="GBRJXe8QP-XChiDNGdr2-9" connectable="0" vertex="1">
          <mxGeometry x="-0.0807" relative="1" as="geometry">
            <mxPoint as="offset" />
          </mxGeometry>
        </mxCell>
        <mxCell id="GBRJXe8QP-XChiDNGdr2-11" value="" style="endArrow=none;startArrow=none;endFill=0;startFill=0;endSize=8;html=1;verticalAlign=bottom;labelBackgroundColor=none;strokeWidth=3;rounded=0;entryX=0;entryY=0.5;entryDx=0;entryDy=0;exitX=1;exitY=0.5;exitDx=0;exitDy=0;" parent="1" source="9kzETTMTDvsTJWJQEYAj-19" target="9kzETTMTDvsTJWJQEYAj-29" edge="1">
          <mxGeometry width="160" relative="1" as="geometry">
            <mxPoint x="140" y="318" as="sourcePoint" />
            <mxPoint x="120" y="350" as="targetPoint" />
          </mxGeometry>
        </mxCell>
        <mxCell id="GBRJXe8QP-XChiDNGdr2-12" value="Creates" style="edgeLabel;html=1;align=center;verticalAlign=middle;resizable=0;points=[];" parent="GBRJXe8QP-XChiDNGdr2-11" connectable="0" vertex="1">
          <mxGeometry x="-0.0807" relative="1" as="geometry">
            <mxPoint as="offset" />
          </mxGeometry>
        </mxCell>
        <mxCell id="GBRJXe8QP-XChiDNGdr2-14" value="" style="endArrow=none;startArrow=none;endFill=0;startFill=0;endSize=8;html=1;verticalAlign=bottom;labelBackgroundColor=none;strokeWidth=3;rounded=0;exitX=1;exitY=0.5;exitDx=0;exitDy=0;entryX=0;entryY=0.5;entryDx=0;entryDy=0;" parent="1" edge="1">
          <mxGeometry width="160" relative="1" as="geometry">
            <mxPoint x="430" y="333.5" as="sourcePoint" />
            <mxPoint x="540" y="269.9999999999999" as="targetPoint" />
            <Array as="points">
              <mxPoint x="470" y="270" />
            </Array>
          </mxGeometry>
        </mxCell>
        <mxCell id="GBRJXe8QP-XChiDNGdr2-15" value="Makes" style="edgeLabel;html=1;align=center;verticalAlign=middle;resizable=0;points=[];" parent="GBRJXe8QP-XChiDNGdr2-14" connectable="0" vertex="1">
          <mxGeometry x="-0.0807" relative="1" as="geometry">
            <mxPoint as="offset" />
          </mxGeometry>
        </mxCell>
        <mxCell id="GBRJXe8QP-XChiDNGdr2-16" value="Status" style="swimlane;fontStyle=0;childLayout=stackLayout;horizontal=1;startSize=26;fillColor=none;horizontalStack=0;resizeParent=1;resizeParentMax=0;resizeLast=0;collapsible=1;marginBottom=0;whiteSpace=wrap;html=1;" parent="1" vertex="1">
          <mxGeometry x="690" y="50" width="130" height="80" as="geometry">
            <mxRectangle x="350" y="460" width="100" height="30" as="alternateBounds" />
          </mxGeometry>
        </mxCell>
        <mxCell id="GBRJXe8QP-XChiDNGdr2-17" value="" style="endArrow=none;startArrow=none;endFill=0;startFill=0;endSize=8;html=1;verticalAlign=bottom;labelBackgroundColor=none;strokeWidth=3;rounded=0;exitX=0.5;exitY=0;exitDx=0;exitDy=0;entryX=0;entryY=0.5;entryDx=0;entryDy=0;" parent="1" edge="1">
          <mxGeometry width="160" relative="1" as="geometry">
            <mxPoint x="670.0000000000005" y="264.9999999999999" as="sourcePoint" />
            <mxPoint x="755.0000000000005" y="130.0000000000001" as="targetPoint" />
            <Array as="points">
              <mxPoint x="780" y="265" />
              <mxPoint x="780" y="190" />
            </Array>
          </mxGeometry>
        </mxCell>
        <mxCell id="GBRJXe8QP-XChiDNGdr2-18" value="Has" style="edgeLabel;html=1;align=center;verticalAlign=middle;resizable=0;points=[];" parent="GBRJXe8QP-XChiDNGdr2-17" connectable="0" vertex="1">
          <mxGeometry x="-0.0807" relative="1" as="geometry">
            <mxPoint as="offset" />
          </mxGeometry>
        </mxCell>
        <mxCell id="cK02aoGFD56z1Gf120GQ-175" value="Ingredients" style="swimlane;fontStyle=0;childLayout=stackLayout;horizontal=1;startSize=26;fillColor=none;horizontalStack=0;resizeParent=1;resizeParentMax=0;resizeLast=0;collapsible=1;marginBottom=0;whiteSpace=wrap;html=1;" parent="1" vertex="1">
          <mxGeometry y="1020" width="130" height="80" as="geometry">
            <mxRectangle x="350" y="460" width="100" height="30" as="alternateBounds" />
          </mxGeometry>
        </mxCell>
        <mxCell id="cK02aoGFD56z1Gf120GQ-178" value="" style="endArrow=none;startArrow=none;endFill=0;startFill=0;endSize=8;html=1;verticalAlign=bottom;labelBackgroundColor=none;strokeWidth=3;rounded=0;entryX=0.75;entryY=1;entryDx=0;entryDy=0;exitX=0.5;exitY=0;exitDx=0;exitDy=0;" parent="1" source="cK02aoGFD56z1Gf120GQ-175" target="9kzETTMTDvsTJWJQEYAj-50" edge="1">
          <mxGeometry width="160" relative="1" as="geometry">
            <mxPoint x="385" y="898" as="sourcePoint" />
            <mxPoint x="320" y="740" as="targetPoint" />
          </mxGeometry>
        </mxCell>
        <mxCell id="cK02aoGFD56z1Gf120GQ-180" value="Chooses" style="edgeLabel;html=1;align=center;verticalAlign=middle;resizable=0;points=[];" parent="cK02aoGFD56z1Gf120GQ-178" vertex="1" connectable="0">
          <mxGeometry x="0.1414" y="-2" relative="1" as="geometry">
            <mxPoint as="offset" />
          </mxGeometry>
        </mxCell>
        <mxCell id="cK02aoGFD56z1Gf120GQ-181" value="" style="endArrow=none;startArrow=none;endFill=0;startFill=0;endSize=8;html=1;verticalAlign=bottom;labelBackgroundColor=none;strokeWidth=3;rounded=0;exitX=0.5;exitY=0;exitDx=0;exitDy=0;" parent="1" source="cK02aoGFD56z1Gf120GQ-183" edge="1">
          <mxGeometry width="160" relative="1" as="geometry">
            <mxPoint x="240" y="1000" as="sourcePoint" />
            <mxPoint x="-90" y="910" as="targetPoint" />
          </mxGeometry>
        </mxCell>
        <mxCell id="cK02aoGFD56z1Gf120GQ-184" value="Chooses" style="edgeLabel;html=1;align=center;verticalAlign=middle;resizable=0;points=[];" parent="cK02aoGFD56z1Gf120GQ-181" vertex="1" connectable="0">
          <mxGeometry x="0.004" y="3" relative="1" as="geometry">
            <mxPoint as="offset" />
          </mxGeometry>
        </mxCell>
        <mxCell id="cK02aoGFD56z1Gf120GQ-183" value="Producer" style="swimlane;fontStyle=0;childLayout=stackLayout;horizontal=1;startSize=20;fillColor=none;horizontalStack=0;resizeParent=1;resizeParentMax=0;resizeLast=0;collapsible=1;marginBottom=0;whiteSpace=wrap;html=1;" parent="1" vertex="1">
          <mxGeometry x="-220" y="1010" width="110" height="90" as="geometry">
            <mxRectangle x="350" y="460" width="100" height="30" as="alternateBounds" />
          </mxGeometry>
        </mxCell>
        <mxCell id="cK02aoGFD56z1Gf120GQ-192" value="" style="endArrow=none;startArrow=none;endFill=0;startFill=0;endSize=8;html=1;verticalAlign=bottom;labelBackgroundColor=none;strokeWidth=3;rounded=0;entryX=0.5;entryY=0;entryDx=0;entryDy=0;exitX=0.5;exitY=1;exitDx=0;exitDy=0;" parent="1" source="cK02aoGFD56z1Gf120GQ-196" target="9kzETTMTDvsTJWJQEYAj-67" edge="1">
          <mxGeometry width="160" relative="1" as="geometry">
            <mxPoint x="-380" y="540" as="sourcePoint" />
            <mxPoint x="-312" y="690" as="targetPoint" />
          </mxGeometry>
        </mxCell>
        <mxCell id="cK02aoGFD56z1Gf120GQ-195" value="Enters" style="edgeLabel;html=1;align=center;verticalAlign=middle;resizable=0;points=[];" parent="cK02aoGFD56z1Gf120GQ-192" vertex="1" connectable="0">
          <mxGeometry x="0.003" y="-3" relative="1" as="geometry">
            <mxPoint y="-1" as="offset" />
          </mxGeometry>
        </mxCell>
        <mxCell id="cK02aoGFD56z1Gf120GQ-196" value="Info" style="swimlane;fontStyle=0;childLayout=stackLayout;horizontal=1;startSize=20;fillColor=none;horizontalStack=0;resizeParent=1;resizeParentMax=0;resizeLast=0;collapsible=1;marginBottom=0;whiteSpace=wrap;html=1;" parent="1" vertex="1">
          <mxGeometry x="-560" y="360" width="140" height="100" as="geometry">
            <mxRectangle x="350" y="460" width="100" height="30" as="alternateBounds" />
          </mxGeometry>
        </mxCell>
        <mxCell id="cK02aoGFD56z1Gf120GQ-208" value="&lt;div&gt;Dish&lt;/div&gt;" style="swimlane;fontStyle=0;childLayout=stackLayout;horizontal=1;startSize=26;fillColor=none;horizontalStack=0;resizeParent=1;resizeParentMax=0;resizeLast=0;collapsible=1;marginBottom=0;whiteSpace=wrap;html=1;" parent="1" vertex="1">
          <mxGeometry x="230" y="860" width="120" height="60" as="geometry">
            <mxRectangle x="230" y="860" width="70" height="30" as="alternateBounds" />
          </mxGeometry>
        </mxCell>
        <mxCell id="cK02aoGFD56z1Gf120GQ-214" value="&lt;div&gt;Dish&lt;/div&gt;" style="swimlane;fontStyle=0;childLayout=stackLayout;horizontal=1;startSize=26;fillColor=none;horizontalStack=0;resizeParent=1;resizeParentMax=0;resizeLast=0;collapsible=1;marginBottom=0;whiteSpace=wrap;html=1;" parent="1" vertex="1">
          <mxGeometry x="360" y="1040" width="110" height="90" as="geometry">
            <mxRectangle x="580" y="461" width="70" height="30" as="alternateBounds" />
          </mxGeometry>
        </mxCell>
        <mxCell id="cK02aoGFD56z1Gf120GQ-215" value="" style="endArrow=none;startArrow=none;endFill=0;startFill=0;endSize=8;html=1;verticalAlign=bottom;labelBackgroundColor=none;strokeWidth=3;rounded=0;entryX=0.75;entryY=1;entryDx=0;entryDy=0;exitX=0.5;exitY=0;exitDx=0;exitDy=0;" parent="1" edge="1">
          <mxGeometry width="160" relative="1" as="geometry">
            <mxPoint x="402.5" y="1040" as="sourcePoint" />
            <mxPoint x="310" y="920" as="targetPoint" />
          </mxGeometry>
        </mxCell>
        <mxCell id="cK02aoGFD56z1Gf120GQ-217" value="Chooses" style="edgeLabel;html=1;align=center;verticalAlign=middle;resizable=0;points=[];" parent="cK02aoGFD56z1Gf120GQ-215" vertex="1" connectable="0">
          <mxGeometry x="0.1924" y="-1" relative="1" as="geometry">
            <mxPoint as="offset" />
          </mxGeometry>
        </mxCell>
        <mxCell id="cK02aoGFD56z1Gf120GQ-222" value="Sorter" style="swimlane;fontStyle=0;childLayout=stackLayout;horizontal=1;startSize=20;fillColor=none;horizontalStack=0;resizeParent=1;resizeParentMax=0;resizeLast=0;collapsible=1;marginBottom=0;whiteSpace=wrap;html=1;" parent="1" vertex="1">
          <mxGeometry x="-1190" y="756" width="160" height="114" as="geometry">
            <mxRectangle x="350" y="460" width="100" height="30" as="alternateBounds" />
          </mxGeometry>
        </mxCell>
        <mxCell id="cK02aoGFD56z1Gf120GQ-235" value="" style="endArrow=none;startArrow=none;endFill=0;startFill=0;endSize=8;html=1;verticalAlign=bottom;labelBackgroundColor=none;strokeWidth=3;rounded=0;exitX=0.5;exitY=0;exitDx=0;exitDy=0;entryX=0.5;entryY=1;entryDx=0;entryDy=0;" parent="1" source="9kzETTMTDvsTJWJQEYAj-19" target="cK02aoGFD56z1Gf120GQ-238" edge="1">
          <mxGeometry width="160" relative="1" as="geometry">
            <mxPoint x="100" y="180" as="sourcePoint" />
            <mxPoint x="80" y="110" as="targetPoint" />
          </mxGeometry>
        </mxCell>
        <mxCell id="cK02aoGFD56z1Gf120GQ-237" value="Chooses" style="edgeLabel;html=1;align=center;verticalAlign=middle;resizable=0;points=[];" parent="cK02aoGFD56z1Gf120GQ-235" vertex="1" connectable="0">
          <mxGeometry x="0.0122" y="-2" relative="1" as="geometry">
            <mxPoint as="offset" />
          </mxGeometry>
        </mxCell>
        <mxCell id="cK02aoGFD56z1Gf120GQ-238" value="Elements" style="swimlane;fontStyle=0;childLayout=stackLayout;horizontal=1;startSize=26;fillColor=none;horizontalStack=0;resizeParent=1;resizeParentMax=0;resizeLast=0;collapsible=1;marginBottom=0;whiteSpace=wrap;html=1;" parent="1" vertex="1">
          <mxGeometry y="100" width="150" height="80" as="geometry">
            <mxRectangle x="580" y="461" width="70" height="30" as="alternateBounds" />
          </mxGeometry>
        </mxCell>
        <mxCell id="cK02aoGFD56z1Gf120GQ-255" value="" style="endArrow=none;startArrow=none;endFill=0;startFill=0;endSize=8;html=1;verticalAlign=bottom;labelBackgroundColor=none;strokeWidth=3;rounded=0;exitX=1;exitY=1;exitDx=0;exitDy=0;entryX=0;entryY=0.5;entryDx=0;entryDy=0;" parent="1" edge="1">
          <mxGeometry width="160" relative="1" as="geometry">
            <mxPoint x="430" y="366.25" as="sourcePoint" />
            <mxPoint x="650" y="411.75" as="targetPoint" />
            <Array as="points">
              <mxPoint x="490" y="410" />
            </Array>
          </mxGeometry>
        </mxCell>
        <mxCell id="cK02aoGFD56z1Gf120GQ-258" value="Searches" style="edgeLabel;html=1;align=center;verticalAlign=middle;resizable=0;points=[];" parent="cK02aoGFD56z1Gf120GQ-255" vertex="1" connectable="0">
          <mxGeometry x="0.1151" y="4" relative="1" as="geometry">
            <mxPoint x="-1" as="offset" />
          </mxGeometry>
        </mxCell>
        <mxCell id="cK02aoGFD56z1Gf120GQ-257" value="&lt;div&gt;Recipe&lt;/div&gt;" style="swimlane;fontStyle=0;childLayout=stackLayout;horizontal=1;startSize=26;fillColor=none;horizontalStack=0;resizeParent=1;resizeParentMax=0;resizeLast=0;collapsible=1;marginBottom=0;whiteSpace=wrap;html=1;" parent="1" vertex="1">
          <mxGeometry x="650" y="380" width="110" height="90" as="geometry">
            <mxRectangle x="580" y="461" width="70" height="30" as="alternateBounds" />
          </mxGeometry>
        </mxCell>
        <mxCell id="cK02aoGFD56z1Gf120GQ-272" value="Friends" style="swimlane;fontStyle=0;childLayout=stackLayout;horizontal=1;startSize=26;fillColor=none;horizontalStack=0;resizeParent=1;resizeParentMax=0;resizeLast=0;collapsible=1;marginBottom=0;whiteSpace=wrap;html=1;" parent="1" vertex="1">
          <mxGeometry x="200" y="550" width="120" height="100" as="geometry">
            <mxRectangle x="350" y="460" width="100" height="30" as="alternateBounds" />
          </mxGeometry>
        </mxCell>
        <mxCell id="cK02aoGFD56z1Gf120GQ-273" value="" style="endArrow=none;startArrow=none;endFill=0;startFill=0;endSize=8;html=1;verticalAlign=bottom;labelBackgroundColor=none;strokeWidth=3;rounded=0;entryX=1;entryY=0.5;entryDx=0;entryDy=0;exitX=0;exitY=0.5;exitDx=0;exitDy=0;" parent="1" source="cK02aoGFD56z1Gf120GQ-272" target="9kzETTMTDvsTJWJQEYAj-15" edge="1">
          <mxGeometry width="160" relative="1" as="geometry">
            <mxPoint x="40" y="510" as="sourcePoint" />
            <mxPoint x="-118" y="778" as="targetPoint" />
          </mxGeometry>
        </mxCell>
        <mxCell id="cK02aoGFD56z1Gf120GQ-278" value="Makes" style="edgeLabel;html=1;align=center;verticalAlign=middle;resizable=0;points=[];" parent="cK02aoGFD56z1Gf120GQ-273" vertex="1" connectable="0">
          <mxGeometry x="-0.075" y="1" relative="1" as="geometry">
            <mxPoint as="offset" />
          </mxGeometry>
        </mxCell>
        <mxCell id="cK02aoGFD56z1Gf120GQ-275" value="" style="endArrow=none;startArrow=none;endFill=0;startFill=0;endSize=8;html=1;verticalAlign=bottom;labelBackgroundColor=none;strokeWidth=3;rounded=0;entryX=0.5;entryY=0;entryDx=0;entryDy=0;exitX=0.25;exitY=1;exitDx=0;exitDy=0;" parent="1" source="9kzETTMTDvsTJWJQEYAj-29" target="cK02aoGFD56z1Gf120GQ-272" edge="1">
          <mxGeometry width="160" relative="1" as="geometry">
            <mxPoint x="140" y="450" as="sourcePoint" />
            <mxPoint x="-18" y="718" as="targetPoint" />
          </mxGeometry>
        </mxCell>
        <mxCell id="cK02aoGFD56z1Gf120GQ-279" value="Makes" style="edgeLabel;html=1;align=center;verticalAlign=middle;resizable=0;points=[];" parent="cK02aoGFD56z1Gf120GQ-275" vertex="1" connectable="0">
          <mxGeometry x="-0.1211" y="-1" relative="1" as="geometry">
            <mxPoint as="offset" />
          </mxGeometry>
        </mxCell>
        <mxCell id="RsBH3FpBVpJ5FogJQQQI-3" value="" style="endArrow=block;endSize=16;endFill=0;html=1;rounded=0;entryX=0.438;entryY=-0.015;entryDx=0;entryDy=0;entryPerimeter=0;" parent="1" edge="1">
          <mxGeometry width="160" relative="1" as="geometry">
            <mxPoint x="-560" y="402" as="sourcePoint" />
            <mxPoint x="-1099.92" y="756.0000000000002" as="targetPoint" />
            <Array as="points">
              <mxPoint x="-580" y="401.71" />
              <mxPoint x="-610" y="401.71" />
              <mxPoint x="-680" y="401.71" />
              <mxPoint x="-830" y="401.71" />
              <mxPoint x="-1100" y="401.71" />
            </Array>
          </mxGeometry>
        </mxCell>
        <mxCell id="RsBH3FpBVpJ5FogJQQQI-4" value="" style="endArrow=block;endSize=16;endFill=0;html=1;rounded=0;" parent="1" edge="1">
          <mxGeometry width="160" relative="1" as="geometry">
            <mxPoint x="-850" y="820" as="sourcePoint" />
            <mxPoint x="-1030" y="821.5" as="targetPoint" />
            <Array as="points" />
          </mxGeometry>
        </mxCell>
        <mxCell id="RsBH3FpBVpJ5FogJQQQI-5" value="" style="endArrow=block;endSize=16;endFill=0;html=1;rounded=0;entryX=0.6;entryY=0.125;entryDx=0;entryDy=0;entryPerimeter=0;" parent="1" edge="1">
          <mxGeometry width="160" relative="1" as="geometry">
            <mxPoint x="-360.36" y="850" as="sourcePoint" />
            <mxPoint x="-360.36" y="1010" as="targetPoint" />
          </mxGeometry>
        </mxCell>
        <mxCell id="RsBH3FpBVpJ5FogJQQQI-8" value="" style="endArrow=block;endSize=16;endFill=0;html=1;rounded=0;" parent="1" edge="1">
          <mxGeometry width="160" relative="1" as="geometry">
            <mxPoint x="-1110.83" y="1290" as="sourcePoint" />
            <mxPoint x="-1110.83" y="870" as="targetPoint" />
            <Array as="points" />
          </mxGeometry>
        </mxCell>
        <mxCell id="RsBH3FpBVpJ5FogJQQQI-9" value="" style="endArrow=none;html=1;rounded=0;" parent="1" edge="1">
          <mxGeometry width="50" height="50" relative="1" as="geometry">
            <mxPoint x="-1110" y="1290" as="sourcePoint" />
            <mxPoint x="720" y="1290" as="targetPoint" />
          </mxGeometry>
        </mxCell>
        <mxCell id="RsBH3FpBVpJ5FogJQQQI-10" value="" style="endArrow=none;html=1;rounded=0;" parent="1" edge="1">
          <mxGeometry width="50" height="50" relative="1" as="geometry">
            <mxPoint x="720" y="1290" as="sourcePoint" />
            <mxPoint x="710" y="470" as="targetPoint" />
          </mxGeometry>
        </mxCell>
        <mxCell id="TsWKd4xj33ykA9k3nUFh-9" value="" style="endArrow=none;html=1;rounded=0;" parent="1" edge="1">
          <mxGeometry relative="1" as="geometry">
            <mxPoint x="-850" y="820" as="sourcePoint" />
            <mxPoint x="-850" y="890" as="targetPoint" />
          </mxGeometry>
        </mxCell>
        <mxCell id="TsWKd4xj33ykA9k3nUFh-10" value="" style="endArrow=none;html=1;rounded=0;" parent="1" edge="1">
          <mxGeometry relative="1" as="geometry">
            <mxPoint x="-850" y="889.58" as="sourcePoint" />
            <mxPoint x="-800" y="889.58" as="targetPoint" />
          </mxGeometry>
        </mxCell>
        <mxCell id="AvmRFNTRV2sXLUMyoS70-5" value="Trips" style="swimlane;fontStyle=0;childLayout=stackLayout;horizontal=1;startSize=30;fillColor=none;horizontalStack=0;resizeParent=1;resizeParentMax=0;resizeLast=0;collapsible=1;marginBottom=0;whiteSpace=wrap;html=1;" vertex="1" parent="1">
          <mxGeometry x="-1020" y="488.00000000000006" width="150" height="82" as="geometry">
            <mxRectangle x="350" y="460" width="100" height="30" as="alternateBounds" />
          </mxGeometry>
        </mxCell>
        <mxCell id="AvmRFNTRV2sXLUMyoS70-6" value="" style="endArrow=none;startArrow=none;endFill=0;startFill=0;endSize=8;html=1;verticalAlign=bottom;labelBackgroundColor=none;strokeWidth=3;rounded=0;entryX=0.332;entryY=0;entryDx=0;entryDy=0;exitX=1;exitY=0.5;exitDx=0;exitDy=0;entryPerimeter=0;" edge="1" parent="1" source="AvmRFNTRV2sXLUMyoS70-5" target="9kzETTMTDvsTJWJQEYAj-88">
          <mxGeometry width="160" relative="1" as="geometry">
            <mxPoint x="-720" y="401.33000000000004" as="sourcePoint" />
            <mxPoint x="-690" y="609.33" as="targetPoint" />
            <Array as="points">
              <mxPoint x="-790" y="579.33" />
            </Array>
          </mxGeometry>
        </mxCell>
        <mxCell id="AvmRFNTRV2sXLUMyoS70-7" value="Programms" style="edgeLabel;html=1;align=center;verticalAlign=middle;resizable=0;points=[];" vertex="1" connectable="0" parent="AvmRFNTRV2sXLUMyoS70-6">
          <mxGeometry x="0.0522" y="-5" relative="1" as="geometry">
            <mxPoint y="-1" as="offset" />
          </mxGeometry>
        </mxCell>
      </root>
    </mxGraphModel>
  </diagram>
</mxfile>
